<svg width="29" height="20" viewBox="0 0 29 20" fill="none" xmlns="http://www.w3.org/2000/svg">
<path d="M27.6474 1.31538C27.2444 1.49737 26.768 1.42956 26.3441 1.54442C25.1074 1.79595 23.9631 2.88371 24.3293 4.12301C24.4521 4.69319 24.5652 5.26509 24.685 5.83562C24.8961 7.40602 24.2809 8.99961 23.2749 10.2503C22.2485 11.5436 20.7763 12.3016 19.1685 12.8168C18.9728 12.8905 18.9546 12.9407 19.0982 13.0887C19.8425 13.8423 20.8057 14.6778 22.0018 14.3644C22.8109 14.1679 23.6303 14.007 24.4483 13.8433C24.6906 13.7949 24.8354 13.6658 24.9519 13.4756C25.5354 12.3169 26.4721 11.2948 27.902 11.0876C28.7315 10.9274 27.9124 12.0356 27.6872 12.2497C27.2012 12.8507 26.5354 13.16 25.9053 13.5804C26.7189 13.561 27.5306 13.4666 28.3437 13.425C28.5808 13.4098 28.7818 13.4873 28.918 13.6811C29.0735 13.9025 29.0058 14.1468 28.7323 14.2236C27.174 14.5688 25.5682 14.7142 23.9921 14.9806C23.8629 15.0179 23.4424 15.0664 23.4231 15.1892C24.3553 15.3556 25.3065 15.5379 25.9973 16.1908C24.5142 16.9983 22.8522 16.4517 21.5161 15.6473C21.3687 15.5642 21.2861 15.6144 21.1942 15.7303C20.9873 15.9656 20.8045 16.251 20.4882 16.369C19.9095 16.6364 20.0044 15.8303 19.4503 16.0022C18.8664 16.2081 17.2958 16.3538 17.1027 16.9014C16.9877 17.1585 16.7529 17.3318 16.4853 17.4526C15.8001 17.7536 16.0004 16.8056 15.3889 17.1253C14.4526 17.4706 13.5129 17.8093 12.5877 18.1788C11.0644 18.7466 9.61302 19.498 8.0533 19.9734C7.50139 20.1533 7.25391 19.3686 7.67072 19.1704C9.47234 18.1767 11.4786 17.5598 13.3837 16.7617C14.1641 16.3915 15.281 16.3271 15.61 15.4566C15.6293 15.4155 15.61 15.3456 15.5843 15.3009C15.1563 14.5516 14.7294 13.8018 14.2873 13.0597C14.2255 12.9559 14.0975 12.8646 13.9773 12.8168C13.5397 12.6431 13.0875 12.5009 12.6509 12.3252C12.4403 12.2404 12.271 12.2674 12.0957 12.3809C9.73248 13.9167 7.33243 15.403 4.94169 16.9014C3.7385 17.627 2.47987 18.4653 0.978581 18.4238C0.076842 18.4085 -0.419617 17.791 0.461653 17.2153C2.97521 15.75 5.52151 14.3346 8.05367 12.8974C8.64317 12.5608 9.3004 12.4245 9.96098 12.2947C12.8821 11.6754 15.888 10.7447 18.1384 8.83596C19.1726 7.92707 19.7711 6.5639 19.4912 5.24364C19.3636 4.72502 19.0055 4.01299 18.3632 3.93964C17.6877 4.02683 18.1377 4.63437 18.3829 4.92119C20.2779 9.03628 10.594 11.5353 7.45636 11.5938C10.2773 9.27881 13.1865 7.05589 16.0186 4.74958C16.3427 4.4901 16.5303 4.15277 16.6736 3.78499C17.0327 2.86261 17.6092 2.06789 18.339 1.36382C19.6672 -0.00833658 21.9642 -0.430432 23.7018 0.491605C24.0557 0.653524 24.4312 0.707151 24.819 0.7158C25.8346 0.7158 26.7639 0.690198 27.6381 1.24896C27.6411 1.2711 27.6444 1.29324 27.6474 1.31538ZM15.3178 13.1202C15.6386 13.7617 15.9989 14.3561 16.3439 14.9826C16.4741 15.2985 16.8813 15.203 17.1232 15.3774C17.2557 15.4885 17.3844 15.4864 17.5348 15.4445C17.8969 15.3438 18.2538 15.2151 18.6237 15.1549C18.9944 15.0944 19.2106 14.9079 19.3859 14.6197C19.4748 14.4734 19.4473 14.3979 19.3282 14.2986C18.8995 13.9416 18.4804 13.5745 18.0476 13.2216C17.9683 13.1569 17.8433 13.1088 17.7387 13.1074C16.9282 13.1102 16.1288 13.0759 15.3182 13.1206L15.3178 13.1202ZM22.7948 2.16511C22.7591 0.95764 20.8254 1.00158 20.8559 2.2478C20.9601 3.28886 22.8019 3.30892 22.7948 2.16511Z" fill="#384A46"/>
</svg>