<svg width="256" height="256" viewBox="0 0 256 256" fill="none" xmlns="http://www.w3.org/2000/svg">
<rect width="256" height="256" rx="128" fill="#F3EFF3"/>
<mask id="mask0_1_2" style="mask-type:alpha" maskUnits="userSpaceOnUse" x="0" y="0" width="256" height="256">
<rect width="256" height="256" rx="128" fill="#819590"/>
</mask>
<g mask="url(#mask0_1_2)">
<path d="M208.311 98.688C201.729 101.716 193.949 100.588 187.027 102.499C166.83 106.685 148.141 124.785 154.122 145.407C156.128 154.895 157.975 164.411 159.932 173.905C163.378 200.036 153.332 226.553 136.904 247.365C120.141 268.885 96.0979 281.499 69.8421 290.072C66.6452 291.298 66.3475 292.133 68.6935 294.597C80.8489 307.136 96.578 321.039 116.112 315.823C129.325 312.553 142.708 309.876 156.067 307.153C160.023 306.347 162.388 304.2 164.29 301.033C173.82 281.753 189.117 264.746 212.468 261.298C226.015 258.632 212.638 277.072 208.961 280.636C201.024 290.636 190.151 295.783 179.861 302.778C193.147 302.455 206.403 300.884 219.682 300.193C223.554 299.939 226.836 301.229 229.06 304.453C231.601 308.137 230.495 312.202 226.027 313.48C200.58 319.226 174.355 321.644 148.616 326.077C146.507 326.698 139.639 327.504 139.323 329.548C154.547 332.317 170.082 335.351 181.362 346.215C157.143 359.652 129.999 350.556 108.18 337.171C105.774 335.789 104.424 336.624 102.923 338.552C99.544 342.467 96.5598 347.217 91.3937 349.18C81.9429 353.63 83.4927 340.216 74.443 343.077C64.907 346.503 39.259 348.927 36.1047 358.04C34.2267 362.318 30.3916 365.202 26.0218 367.211C14.8327 372.22 18.1025 356.445 8.11678 361.765C-7.17477 367.511 -22.521 373.147 -37.6303 379.295C-62.5064 388.743 -86.2095 401.247 -111.681 409.158C-120.695 412.151 -124.736 399.094 -117.929 395.795C-88.5069 379.261 -55.7419 368.996 -24.63 355.714C-11.885 349.554 6.35424 348.483 11.727 333.998C12.043 333.313 11.7269 332.15 11.3076 331.408C4.3182 318.938 -2.65295 306.462 -9.87328 294.113C-10.8822 292.386 -12.9729 290.866 -14.936 290.072C-22.0834 287.182 -29.4679 284.815 -36.597 281.891C-40.037 280.48 -42.8024 280.929 -45.665 282.818C-84.2586 308.374 -123.454 333.106 -162.497 358.04C-182.146 370.113 -202.701 384.062 -227.219 383.371C-241.945 383.118 -250.053 372.842 -235.661 363.262C-194.612 338.88 -153.028 315.328 -111.675 291.413C-102.048 285.811 -91.3148 283.543 -80.5268 281.384C-32.8228 271.079 16.267 255.592 53.019 223.83C69.909 208.706 79.682 186.023 75.1115 164.054C73.0269 155.424 67.1801 143.576 56.6899 142.356C45.6589 143.806 53.0068 153.916 57.0121 158.689C87.9598 227.164 -70.1886 268.747 -121.43 269.72C-75.3608 231.199 -27.8512 194.21 18.4003 155.833C23.694 151.515 26.7572 145.902 29.0971 139.782C34.9621 124.434 44.3765 111.21 56.2949 99.494C77.9863 76.6613 115.498 69.6376 143.875 84.9803C149.655 87.6746 155.787 88.567 162.12 88.7109C178.706 88.7109 193.882 88.2849 208.159 97.5826C208.208 97.9511 208.262 98.3195 208.311 98.688ZM6.95593 295.121C12.1949 305.794 18.0782 315.685 23.7122 326.111C25.8394 331.367 32.4884 329.778 36.439 332.68C38.6026 334.528 40.7055 334.494 43.1609 333.797C49.0746 332.122 54.9031 329.98 60.9443 328.978C66.9978 327.971 70.5289 324.868 73.3915 320.072C74.8441 317.637 74.3944 316.382 72.4495 314.729C65.448 308.788 58.6044 302.68 51.536 296.807C50.2415 295.731 48.1994 294.931 46.4915 294.908C33.2542 294.954 20.1993 294.384 6.962 295.126L6.95593 295.121ZM129.063 112.827C128.48 92.7351 96.9002 93.4663 97.3985 114.203C99.1003 131.527 129.179 131.86 129.063 112.827Z" fill="#009875"/>
</g>
<rect x="0.5" y="0.5" width="255" height="255" rx="127.5" stroke="#819590"/>
</svg>
